<svg width="854" height="666" viewBox="0 0 854 666" fill="none" xmlns="http://www.w3.org/2000/svg">
<rect y="0.000244141" width="854" height="666" fill="#0D0D0D"/>
<path d="M31.09 56.5302C31.09 54.4902 31.55 52.6602 32.47 51.0402C33.39 49.4002 34.64 48.1202 36.22 47.2002C37.82 46.2802 39.59 45.8202 41.53 45.8202C43.81 45.8202 45.8 46.3702 47.5 47.4702C49.2 48.5702 50.44 50.1302 51.2201 52.1502H47.95C47.37 50.8902 46.53 49.9202 45.43 49.2402C44.35 48.5602 43.05 48.2202 41.53 48.2202C40.07 48.2202 38.76 48.5602 37.6 49.2402C36.44 49.9202 35.53 50.8902 34.87 52.1502C34.21 53.3902 33.88 54.8502 33.88 56.5302C33.88 58.1902 34.21 59.6502 34.87 60.9102C35.53 62.1502 36.44 63.1102 37.6 63.7902C38.76 64.4702 40.07 64.8102 41.53 64.8102C43.05 64.8102 44.35 64.4802 45.43 63.8202C46.53 63.1402 47.37 62.1702 47.95 60.9102H51.2201C50.44 62.9102 49.2 64.4602 47.5 65.5602C45.8 66.6402 43.81 67.1802 41.53 67.1802C39.59 67.1802 37.82 66.7302 36.22 65.8302C34.64 64.9102 33.39 63.6402 32.47 62.0202C31.55 60.4002 31.09 58.5702 31.09 56.5302ZM62.4539 67.2702C60.9139 67.2702 59.5139 66.9202 58.2539 66.2202C57.0139 65.5202 56.0339 64.5302 55.3139 63.2502C54.6139 61.9502 54.2639 60.4502 54.2639 58.7502C54.2639 57.0702 54.6239 55.5902 55.3439 54.3102C56.0839 53.0102 57.0839 52.0202 58.3439 51.3402C59.6039 50.6402 61.0139 50.2902 62.5739 50.2902C64.1339 50.2902 65.5439 50.6402 66.8039 51.3402C68.0639 52.0202 69.0539 53.0002 69.7739 54.2802C70.5139 55.5602 70.8839 57.0502 70.8839 58.7502C70.8839 60.4502 70.5039 61.9502 69.7439 63.2502C69.0039 64.5302 67.9939 65.5202 66.7139 66.2202C65.4339 66.9202 64.0139 67.2702 62.4539 67.2702ZM62.4539 64.8702C63.4339 64.8702 64.3539 64.6402 65.2139 64.1802C66.0739 63.7202 66.7639 63.0302 67.2839 62.1102C67.8239 61.1902 68.0939 60.0702 68.0939 58.7502C68.0939 57.4302 67.8339 56.3102 67.3139 55.3902C66.7939 54.4702 66.1139 53.7902 65.2739 53.3502C64.4339 52.8902 63.5239 52.6602 62.5439 52.6602C61.5439 52.6602 60.6239 52.8902 59.7839 53.3502C58.9639 53.7902 58.3039 54.4702 57.8039 55.3902C57.3039 56.3102 57.0539 57.4302 57.0539 58.7502C57.0539 60.0902 57.2939 61.2202 57.7739 62.1402C58.2739 63.0602 58.9339 63.7502 59.7539 64.2102C60.5739 64.6502 61.4739 64.8702 62.4539 64.8702ZM77.2033 44.8002V67.0002H74.4733V44.8002H77.2033ZM84.5861 44.8002V67.0002H81.8561V44.8002H84.5861ZM104.239 58.1502C104.239 58.6702 104.209 59.2202 104.149 59.8002H91.009C91.109 61.4202 91.659 62.6902 92.659 63.6102C93.679 64.5102 94.909 64.9602 96.349 64.9602C97.529 64.9602 98.509 64.6902 99.289 64.1502C100.089 63.5902 100.649 62.8502 100.969 61.9302H103.909C103.469 63.5102 102.589 64.8002 101.269 65.8002C99.949 66.7802 98.309 67.2702 96.349 67.2702C94.789 67.2702 93.389 66.9202 92.149 66.2202C90.929 65.5202 89.969 64.5302 89.269 63.2502C88.569 61.9502 88.219 60.4502 88.219 58.7502C88.219 57.0502 88.559 55.5602 89.239 54.2802C89.919 53.0002 90.869 52.0202 92.089 51.3402C93.329 50.6402 94.749 50.2902 96.349 50.2902C97.909 50.2902 99.289 50.6302 100.489 51.3102C101.689 51.9902 102.609 52.9302 103.249 54.1302C103.909 55.3102 104.239 56.6502 104.239 58.1502ZM101.419 57.5802C101.419 56.5402 101.189 55.6502 100.729 54.9102C100.269 54.1502 99.639 53.5802 98.839 53.2002C98.059 52.8002 97.189 52.6002 96.229 52.6002C94.849 52.6002 93.669 53.0402 92.689 53.9202C91.729 54.8002 91.179 56.0202 91.039 57.5802H101.419ZM106.822 58.7502C106.822 57.0502 107.162 55.5702 107.842 54.3102C108.522 53.0302 109.462 52.0402 110.662 51.3402C111.882 50.6402 113.272 50.2902 114.832 50.2902C116.852 50.2902 118.512 50.7802 119.812 51.7602C121.132 52.7402 122.002 54.1002 122.422 55.8402H119.482C119.202 54.8402 118.652 54.0502 117.832 53.4702C117.032 52.8902 116.032 52.6002 114.832 52.6002C113.272 52.6002 112.012 53.1402 111.052 54.2202C110.092 55.2802 109.612 56.7902 109.612 58.7502C109.612 60.7302 110.092 62.2602 111.052 63.3402C112.012 64.4202 113.272 64.9602 114.832 64.9602C116.032 64.9602 117.032 64.6802 117.832 64.1202C118.632 63.5602 119.182 62.7602 119.482 61.7202H122.422C121.982 63.4002 121.102 64.7502 119.782 65.7702C118.462 66.7702 116.812 67.2702 114.832 67.2702C113.272 67.2702 111.882 66.9202 110.662 66.2202C109.462 65.5202 108.522 64.5302 107.842 63.2502C107.162 61.9702 106.822 60.4702 106.822 58.7502ZM129.395 52.8102V62.5002C129.395 63.3002 129.565 63.8702 129.905 64.2102C130.245 64.5302 130.835 64.6902 131.675 64.6902H133.685V67.0002H131.225C129.705 67.0002 128.565 66.6502 127.805 65.9502C127.045 65.2502 126.665 64.1002 126.665 62.5002V52.8102H124.535V50.5602H126.665V46.4202H129.395V50.5602H133.685V52.8102H129.395ZM151.621 67.2102C150.241 67.2102 149.001 66.9702 147.901 66.4902C146.821 65.9902 145.971 65.3102 145.351 64.4502C144.731 63.5702 144.411 62.5602 144.391 61.4202H147.301C147.401 62.4002 147.801 63.2302 148.501 63.9102C149.221 64.5702 150.261 64.9002 151.621 64.9002C152.921 64.9002 153.941 64.5802 154.681 63.9402C155.441 63.2802 155.821 62.4402 155.821 61.4202C155.821 60.6202 155.601 59.9702 155.161 59.4702C154.721 58.9702 154.171 58.5902 153.511 58.3302C152.851 58.0702 151.961 57.7902 150.841 57.4902C149.461 57.1302 148.351 56.7702 147.511 56.4102C146.691 56.0502 145.981 55.4902 145.381 54.7302C144.801 53.9502 144.511 52.9102 144.511 51.6102C144.511 50.4702 144.801 49.4602 145.381 48.5802C145.961 47.7002 146.771 47.0202 147.811 46.5402C148.871 46.0602 150.081 45.8202 151.441 45.8202C153.401 45.8202 155.001 46.3102 156.241 47.2902C157.501 48.2702 158.211 49.5702 158.371 51.1902H155.371C155.271 50.3902 154.851 49.6902 154.111 49.0902C153.371 48.4702 152.391 48.1602 151.171 48.1602C150.031 48.1602 149.101 48.4602 148.381 49.0602C147.661 49.6402 147.301 50.4602 147.301 51.5202C147.301 52.2802 147.511 52.9002 147.931 53.3802C148.371 53.8602 148.901 54.2302 149.521 54.4902C150.161 54.7302 151.051 55.0102 152.191 55.3302C153.571 55.7102 154.681 56.0902 155.521 56.4702C156.361 56.8302 157.081 57.4002 157.681 58.1802C158.281 58.9402 158.581 59.9802 158.581 61.3002C158.581 62.3202 158.311 63.2802 157.771 64.1802C157.231 65.0802 156.431 65.8102 155.371 66.3702C154.311 66.9302 153.061 67.2102 151.621 67.2102ZM177.178 50.5602V67.0002H174.448V64.5702C173.928 65.4102 173.198 66.0702 172.258 66.5502C171.338 67.0102 170.318 67.2402 169.198 67.2402C167.918 67.2402 166.768 66.9802 165.748 66.4602C164.728 65.9202 163.918 65.1202 163.318 64.0602C162.738 63.0002 162.448 61.7102 162.448 60.1902V50.5602H165.148V59.8302C165.148 61.4502 165.558 62.7002 166.378 63.5802C167.198 64.4402 168.318 64.8702 169.738 64.8702C171.198 64.8702 172.348 64.4202 173.188 63.5202C174.028 62.6202 174.448 61.3102 174.448 59.5902V50.5602H177.178ZM184.518 53.6202C185.078 52.6402 185.898 51.8402 186.978 51.2202C188.058 50.6002 189.288 50.2902 190.668 50.2902C192.148 50.2902 193.478 50.6402 194.658 51.3402C195.838 52.0402 196.768 53.0302 197.448 54.3102C198.128 55.5702 198.468 57.0402 198.468 58.7202C198.468 60.3802 198.128 61.8602 197.448 63.1602C196.768 64.4602 195.828 65.4702 194.628 66.1902C193.448 66.9102 192.128 67.2702 190.668 67.2702C189.248 67.2702 187.998 66.9602 186.918 66.3402C185.858 65.7202 185.058 64.9302 184.518 63.9702V67.0002H181.788V44.8002H184.518V53.6202ZM195.678 58.7202C195.678 57.4802 195.428 56.4002 194.928 55.4802C194.428 54.5602 193.748 53.8602 192.888 53.3802C192.048 52.9002 191.118 52.6602 190.098 52.6602C189.098 52.6602 188.168 52.9102 187.308 53.4102C186.468 53.8902 185.788 54.6002 185.268 55.5402C184.768 56.4602 184.518 57.5302 184.518 58.7502C184.518 59.9902 184.768 61.0802 185.268 62.0202C185.788 62.9402 186.468 63.6502 187.308 64.1502C188.168 64.6302 189.098 64.8702 190.098 64.8702C191.118 64.8702 192.048 64.6302 192.888 64.1502C193.748 63.6502 194.428 62.9402 194.928 62.0202C195.428 61.0802 195.678 59.9802 195.678 58.7202ZM207.881 67.2702C206.621 67.2702 205.491 67.0602 204.491 66.6402C203.491 66.2002 202.701 65.6002 202.121 64.8402C201.541 64.0602 201.221 63.1702 201.161 62.1702H203.981C204.061 62.9902 204.441 63.6602 205.121 64.1802C205.821 64.7002 206.731 64.9602 207.851 64.9602C208.891 64.9602 209.711 64.7302 210.311 64.2702C210.911 63.8102 211.211 63.2302 211.211 62.5302C211.211 61.8102 210.891 61.2802 210.251 60.9402C209.611 60.5802 208.621 60.2302 207.281 59.8902C206.061 59.5702 205.061 59.2502 204.281 58.9302C203.521 58.5902 202.861 58.1002 202.301 57.4602C201.761 56.8002 201.491 55.9402 201.491 54.8802C201.491 54.0402 201.741 53.2702 202.241 52.5702C202.741 51.8702 203.451 51.3202 204.371 50.9202C205.291 50.5002 206.341 50.2902 207.521 50.2902C209.341 50.2902 210.811 50.7502 211.931 51.6702C213.051 52.5902 213.651 53.8502 213.731 55.4502H211.001C210.941 54.5902 210.591 53.9002 209.951 53.3802C209.331 52.8602 208.491 52.6002 207.431 52.6002C206.451 52.6002 205.671 52.8102 205.091 53.2302C204.511 53.6502 204.221 54.2002 204.221 54.8802C204.221 55.4202 204.391 55.8702 204.731 56.2302C205.091 56.5702 205.531 56.8502 206.051 57.0702C206.591 57.2702 207.331 57.5002 208.271 57.7602C209.451 58.0802 210.411 58.4002 211.151 58.7202C211.891 59.0202 212.521 59.4802 213.041 60.1002C213.581 60.7202 213.861 61.5302 213.881 62.5302C213.881 63.4302 213.631 64.2402 213.131 64.9602C212.631 65.6802 211.921 66.2502 211.001 66.6702C210.101 67.0702 209.061 67.2702 207.881 67.2702ZM216.715 58.7502C216.715 57.0502 217.055 55.5702 217.735 54.3102C218.415 53.0302 219.355 52.0402 220.555 51.3402C221.775 50.6402 223.165 50.2902 224.725 50.2902C226.745 50.2902 228.405 50.7802 229.705 51.7602C231.025 52.7402 231.895 54.1002 232.315 55.8402H229.375C229.095 54.8402 228.545 54.0502 227.725 53.4702C226.925 52.8902 225.925 52.6002 224.725 52.6002C223.165 52.6002 221.905 53.1402 220.945 54.2202C219.985 55.2802 219.505 56.7902 219.505 58.7502C219.505 60.7302 219.985 62.2602 220.945 63.3402C221.905 64.4202 223.165 64.9602 224.725 64.9602C225.925 64.9602 226.925 64.6802 227.725 64.1202C228.525 63.5602 229.075 62.7602 229.375 61.7202H232.315C231.875 63.4002 230.995 64.7502 229.675 65.7702C228.355 66.7702 226.705 67.2702 224.725 67.2702C223.165 67.2702 221.775 66.9202 220.555 66.2202C219.355 65.5202 218.415 64.5302 217.735 63.2502C217.055 61.9702 216.715 60.4702 216.715 58.7502ZM238.688 53.2302C239.168 52.2902 239.848 51.5602 240.728 51.0402C241.628 50.5202 242.718 50.2602 243.998 50.2602V53.0802H243.278C240.218 53.0802 238.688 54.7402 238.688 58.0602V67.0002H235.958V50.5602H238.688V53.2302ZM248.559 47.8902C248.039 47.8902 247.599 47.7102 247.239 47.3502C246.879 46.9902 246.699 46.5502 246.699 46.0302C246.699 45.5102 246.879 45.0702 247.239 44.7102C247.599 44.3502 248.039 44.1702 248.559 44.1702C249.059 44.1702 249.479 44.3502 249.819 44.7102C250.179 45.0702 250.359 45.5102 250.359 46.0302C250.359 46.5502 250.179 46.9902 249.819 47.3502C249.479 47.7102 249.059 47.8902 248.559 47.8902ZM249.879 50.5602V67.0002H247.149V50.5602H249.879ZM257.262 53.6202C257.822 52.6402 258.642 51.8402 259.722 51.2202C260.802 50.6002 262.032 50.2902 263.412 50.2902C264.892 50.2902 266.222 50.6402 267.402 51.3402C268.582 52.0402 269.512 53.0302 270.192 54.3102C270.872 55.5702 271.212 57.0402 271.212 58.7202C271.212 60.3802 270.872 61.8602 270.192 63.1602C269.512 64.4602 268.572 65.4702 267.372 66.1902C266.192 66.9102 264.872 67.2702 263.412 67.2702C261.992 67.2702 260.742 66.9602 259.662 66.3402C258.602 65.7202 257.802 64.9302 257.262 63.9702V67.0002H254.532V44.8002H257.262V53.6202ZM268.422 58.7202C268.422 57.4802 268.172 56.4002 267.672 55.4802C267.172 54.5602 266.492 53.8602 265.632 53.3802C264.792 52.9002 263.862 52.6602 262.842 52.6602C261.842 52.6602 260.912 52.9102 260.052 53.4102C259.212 53.8902 258.532 54.6002 258.012 55.5402C257.512 56.4602 257.262 57.5302 257.262 58.7502C257.262 59.9902 257.512 61.0802 258.012 62.0202C258.532 62.9402 259.212 63.6502 260.052 64.1502C260.912 64.6302 261.842 64.8702 262.842 64.8702C263.862 64.8702 264.792 64.6302 265.632 64.1502C266.492 63.6502 267.172 62.9402 267.672 62.0202C268.172 61.0802 268.422 59.9802 268.422 58.7202ZM289.805 58.1502C289.805 58.6702 289.775 59.2202 289.715 59.8002H276.575C276.675 61.4202 277.225 62.6902 278.225 63.6102C279.245 64.5102 280.475 64.9602 281.915 64.9602C283.095 64.9602 284.075 64.6902 284.855 64.1502C285.655 63.5902 286.215 62.8502 286.535 61.9302H289.475C289.035 63.5102 288.155 64.8002 286.835 65.8002C285.515 66.7802 283.875 67.2702 281.915 67.2702C280.355 67.2702 278.955 66.9202 277.715 66.2202C276.495 65.5202 275.535 64.5302 274.835 63.2502C274.135 61.9502 273.785 60.4502 273.785 58.7502C273.785 57.0502 274.125 55.5602 274.805 54.2802C275.485 53.0002 276.435 52.0202 277.655 51.3402C278.895 50.6402 280.315 50.2902 281.915 50.2902C283.475 50.2902 284.855 50.6302 286.055 51.3102C287.255 51.9902 288.175 52.9302 288.815 54.1302C289.475 55.3102 289.805 56.6502 289.805 58.1502ZM286.985 57.5802C286.985 56.5402 286.755 55.6502 286.295 54.9102C285.835 54.1502 285.205 53.5802 284.405 53.2002C283.625 52.8002 282.755 52.6002 281.795 52.6002C280.415 52.6002 279.235 53.0402 278.255 53.9202C277.295 54.8002 276.745 56.0202 276.605 57.5802H286.985ZM296.139 53.2302C296.619 52.2902 297.299 51.5602 298.179 51.0402C299.079 50.5202 300.169 50.2602 301.449 50.2602V53.0802H300.729C297.669 53.0802 296.139 54.7402 296.139 58.0602V67.0002H293.409V50.5602H296.139V53.2302ZM310.42 67.2702C309.16 67.2702 308.03 67.0602 307.03 66.6402C306.03 66.2002 305.24 65.6002 304.66 64.8402C304.08 64.0602 303.76 63.1702 303.7 62.1702H306.52C306.6 62.9902 306.98 63.6602 307.66 64.1802C308.36 64.7002 309.27 64.9602 310.39 64.9602C311.43 64.9602 312.25 64.7302 312.85 64.2702C313.45 63.8102 313.75 63.2302 313.75 62.5302C313.75 61.8102 313.43 61.2802 312.79 60.9402C312.15 60.5802 311.16 60.2302 309.82 59.8902C308.6 59.5702 307.6 59.2502 306.82 58.9302C306.06 58.5902 305.4 58.1002 304.84 57.4602C304.3 56.8002 304.03 55.9402 304.03 54.8802C304.03 54.0402 304.28 53.2702 304.78 52.5702C305.28 51.8702 305.99 51.3202 306.91 50.9202C307.83 50.5002 308.88 50.2902 310.06 50.2902C311.88 50.2902 313.35 50.7502 314.47 51.6702C315.59 52.5902 316.19 53.8502 316.27 55.4502H313.54C313.48 54.5902 313.13 53.9002 312.49 53.3802C311.87 52.8602 311.03 52.6002 309.97 52.6002C308.99 52.6002 308.21 52.8102 307.63 53.2302C307.05 53.6502 306.76 54.2002 306.76 54.8802C306.76 55.4202 306.93 55.8702 307.27 56.2302C307.63 56.5702 308.07 56.8502 308.59 57.0702C309.13 57.2702 309.87 57.5002 310.81 57.7602C311.99 58.0802 312.95 58.4002 313.69 58.7202C314.43 59.0202 315.06 59.4802 315.58 60.1002C316.12 60.7202 316.4 61.5302 316.42 62.5302C316.42 63.4302 316.17 64.2402 315.67 64.9602C315.17 65.6802 314.46 66.2502 313.54 66.6702C312.64 67.0702 311.6 67.2702 310.42 67.2702Z" fill="#0FC65C"/>
<path d="M48.43 204.8V216.16H66.75V226.72H48.43V239.04H69.15V250H34.75V193.84H69.15V204.8H48.43ZM134.991 204.88C140.538 204.88 144.938 206.56 148.191 209.92C151.498 213.28 153.151 217.947 153.151 223.92V250H139.551V225.76C139.551 222.88 138.778 220.667 137.231 219.12C135.738 217.52 133.658 216.72 130.991 216.72C128.325 216.72 126.218 217.52 124.671 219.12C123.178 220.667 122.431 222.88 122.431 225.76V250H108.831V225.76C108.831 222.88 108.058 220.667 106.511 219.12C105.018 217.52 102.938 216.72 100.271 216.72C97.6046 216.72 95.498 217.52 93.9513 219.12C92.458 220.667 91.7113 222.88 91.7113 225.76V250H78.0313V205.36H91.7113V210.96C93.098 209.094 94.9113 207.627 97.1513 206.56C99.3913 205.44 101.925 204.88 104.751 204.88C108.111 204.88 111.098 205.6 113.711 207.04C116.378 208.48 118.458 210.534 119.951 213.2C121.498 210.747 123.605 208.747 126.271 207.2C128.938 205.654 131.845 204.88 134.991 204.88ZM159.999 227.6C159.999 223.014 160.852 218.987 162.559 215.52C164.319 212.054 166.692 209.387 169.679 207.52C172.665 205.654 175.999 204.72 179.679 204.72C182.825 204.72 185.572 205.36 187.919 206.64C190.319 207.92 192.159 209.6 193.439 211.68V205.36H207.119V250H193.439V243.68C192.105 245.76 190.239 247.44 187.839 248.72C185.492 250 182.745 250.64 179.599 250.64C175.972 250.64 172.665 249.707 169.679 247.84C166.692 245.92 164.319 243.227 162.559 239.76C160.852 236.24 159.999 232.187 159.999 227.6ZM193.439 227.68C193.439 224.267 192.479 221.574 190.559 219.6C188.692 217.627 186.399 216.64 183.679 216.64C180.959 216.64 178.639 217.627 176.719 219.6C174.852 221.52 173.919 224.187 173.919 227.6C173.919 231.014 174.852 233.734 176.719 235.76C178.639 237.734 180.959 238.72 183.679 238.72C186.399 238.72 188.692 237.734 190.559 235.76C192.479 233.787 193.439 231.094 193.439 227.68ZM223.896 200.72C221.496 200.72 219.522 200.027 217.976 198.64C216.482 197.2 215.736 195.44 215.736 193.36C215.736 191.227 216.482 189.467 217.976 188.08C219.522 186.64 221.496 185.92 223.896 185.92C226.242 185.92 228.162 186.64 229.656 188.08C231.202 189.467 231.976 191.227 231.976 193.36C231.976 195.44 231.202 197.2 229.656 198.64C228.162 200.027 226.242 200.72 223.896 200.72ZM230.696 205.36V250H217.016V205.36H230.696ZM254.289 190.8V250H240.609V190.8H254.289ZM282.363 250.64C278.47 250.64 275.003 249.974 271.963 248.64C268.923 247.307 266.523 245.494 264.763 243.2C263.003 240.854 262.016 238.24 261.803 235.36H275.323C275.483 236.907 276.203 238.16 277.483 239.12C278.763 240.08 280.336 240.56 282.203 240.56C283.91 240.56 285.216 240.24 286.123 239.6C287.083 238.907 287.563 238.027 287.563 236.96C287.563 235.68 286.896 234.747 285.563 234.16C284.23 233.52 282.07 232.827 279.083 232.08C275.883 231.334 273.216 230.56 271.083 229.76C268.95 228.907 267.11 227.6 265.563 225.84C264.016 224.027 263.243 221.6 263.243 218.56C263.243 216 263.936 213.68 265.323 211.6C266.763 209.467 268.843 207.787 271.563 206.56C274.336 205.334 277.616 204.72 281.403 204.72C287.003 204.72 291.403 206.107 294.603 208.88C297.856 211.654 299.723 215.334 300.203 219.92H287.563C287.35 218.374 286.656 217.147 285.483 216.24C284.363 215.334 282.87 214.88 281.003 214.88C279.403 214.88 278.176 215.2 277.323 215.84C276.47 216.427 276.043 217.254 276.043 218.32C276.043 219.6 276.71 220.56 278.043 221.2C279.43 221.84 281.563 222.48 284.443 223.12C287.75 223.974 290.443 224.827 292.523 225.68C294.603 226.48 296.416 227.814 297.963 229.68C299.563 231.494 300.39 233.947 300.443 237.04C300.443 239.654 299.697 242 298.203 244.08C296.763 246.107 294.656 247.707 291.883 248.88C289.163 250.054 285.99 250.64 282.363 250.64ZM315.213 250.64C312.813 250.64 310.839 249.947 309.293 248.56C307.799 247.12 307.053 245.36 307.053 243.28C307.053 241.147 307.799 239.36 309.293 237.92C310.839 236.48 312.813 235.76 315.213 235.76C317.559 235.76 319.479 236.48 320.973 237.92C322.519 239.36 323.293 241.147 323.293 243.28C323.293 245.36 322.519 247.12 320.973 248.56C319.479 249.947 317.559 250.64 315.213 250.64ZM77.55 304.92C77.55 308.174 76.8034 311.16 75.31 313.88C73.8167 316.547 71.5234 318.707 68.43 320.36C65.3367 322.014 61.4967 322.84 56.91 322.84H48.43V343H34.75V286.84H56.91C61.39 286.84 65.1767 287.614 68.27 289.16C71.3634 290.707 73.6834 292.84 75.23 295.56C76.7767 298.28 77.55 301.4 77.55 304.92ZM55.87 311.96C58.4834 311.96 60.43 311.347 61.71 310.12C62.99 308.894 63.63 307.16 63.63 304.92C63.63 302.68 62.99 300.947 61.71 299.72C60.43 298.494 58.4834 297.88 55.87 297.88H48.43V311.96H55.87ZM112.112 297.88C117.232 297.88 121.339 299.587 124.432 303C127.525 306.36 129.072 311 129.072 316.92V343H115.472V318.76C115.472 315.774 114.699 313.454 113.152 311.8C111.605 310.147 109.525 309.32 106.912 309.32C104.299 309.32 102.219 310.147 100.672 311.8C99.1252 313.454 98.3519 315.774 98.3519 318.76V343H84.6719V283.8H98.3519V304.36C99.7386 302.387 101.632 300.814 104.032 299.64C106.432 298.467 109.125 297.88 112.112 297.88ZM158.898 343.64C154.525 343.64 150.578 342.707 147.058 340.84C143.591 338.974 140.845 336.307 138.818 332.84C136.845 329.374 135.858 325.32 135.858 320.68C135.858 316.094 136.871 312.067 138.898 308.6C140.925 305.08 143.698 302.387 147.218 300.52C150.738 298.654 154.685 297.72 159.058 297.72C163.431 297.72 167.378 298.654 170.898 300.52C174.418 302.387 177.191 305.08 179.218 308.6C181.245 312.067 182.258 316.094 182.258 320.68C182.258 325.267 181.218 329.32 179.138 332.84C177.111 336.307 174.311 338.974 170.738 340.84C167.218 342.707 163.271 343.64 158.898 343.64ZM158.898 331.8C161.511 331.8 163.725 330.84 165.538 328.92C167.405 327 168.338 324.254 168.338 320.68C168.338 317.107 167.431 314.36 165.618 312.44C163.858 310.52 161.671 309.56 159.058 309.56C156.391 309.56 154.178 310.52 152.418 312.44C150.658 314.307 149.778 317.054 149.778 320.68C149.778 324.254 150.631 327 152.338 328.92C154.098 330.84 156.285 331.8 158.898 331.8ZM216.716 297.88C221.942 297.88 226.102 299.587 229.196 303C232.342 306.36 233.916 311 233.916 316.92V343H220.316V318.76C220.316 315.774 219.542 313.454 217.996 311.8C216.449 310.147 214.369 309.32 211.756 309.32C209.142 309.32 207.062 310.147 205.516 311.8C203.969 313.454 203.196 315.774 203.196 318.76V343H189.516V298.36H203.196V304.28C204.582 302.307 206.449 300.76 208.796 299.64C211.142 298.467 213.782 297.88 216.716 297.88ZM285.502 319.96C285.502 321.24 285.422 322.574 285.262 323.96H254.302C254.515 326.734 255.395 328.867 256.942 330.36C258.542 331.8 260.489 332.52 262.782 332.52C266.195 332.52 268.569 331.08 269.902 328.2H284.462C283.715 331.134 282.355 333.774 280.382 336.12C278.462 338.467 276.035 340.307 273.102 341.64C270.169 342.974 266.889 343.64 263.262 343.64C258.889 343.64 254.995 342.707 251.582 340.84C248.169 338.974 245.502 336.307 243.582 332.84C241.662 329.374 240.702 325.32 240.702 320.68C240.702 316.04 241.635 311.987 243.502 308.52C245.422 305.054 248.089 302.387 251.502 300.52C254.915 298.654 258.835 297.72 263.262 297.72C267.582 297.72 271.422 298.627 274.782 300.44C278.142 302.254 280.755 304.84 282.622 308.2C284.542 311.56 285.502 315.48 285.502 319.96ZM271.502 316.36C271.502 314.014 270.702 312.147 269.102 310.76C267.502 309.374 265.502 308.68 263.102 308.68C260.809 308.68 258.862 309.347 257.262 310.68C255.715 312.014 254.755 313.907 254.382 316.36H271.502ZM361.912 307.96L359.672 318.44H369.272V330.76H357.032L354.392 343H341.592L344.232 330.76H330.952L328.312 343H315.512L318.152 330.76H306.312V318.44H320.792L323.032 307.96H311.432V295.64H325.592L328.152 283.8H340.952L338.392 295.64H351.672L354.232 283.8H367.032L364.472 295.64H374.392V307.96H361.912ZM349.112 307.96H335.832L333.592 318.44H346.872L349.112 307.96ZM400.176 343.64C396.282 343.64 392.816 342.974 389.776 341.64C386.736 340.307 384.336 338.494 382.576 336.2C380.816 333.854 379.829 331.24 379.616 328.36H393.136C393.296 329.907 394.016 331.16 395.296 332.12C396.576 333.08 398.149 333.56 400.016 333.56C401.722 333.56 403.029 333.24 403.936 332.6C404.896 331.907 405.376 331.027 405.376 329.96C405.376 328.68 404.709 327.747 403.376 327.16C402.042 326.52 399.882 325.827 396.896 325.08C393.696 324.334 391.029 323.56 388.896 322.76C386.762 321.907 384.922 320.6 383.376 318.84C381.829 317.027 381.056 314.6 381.056 311.56C381.056 309 381.749 306.68 383.136 304.6C384.576 302.467 386.656 300.787 389.376 299.56C392.149 298.334 395.429 297.72 399.216 297.72C404.816 297.72 409.216 299.107 412.416 301.88C415.669 304.654 417.536 308.334 418.016 312.92H405.376C405.162 311.374 404.469 310.147 403.296 309.24C402.176 308.334 400.682 307.88 398.816 307.88C397.216 307.88 395.989 308.2 395.136 308.84C394.282 309.427 393.856 310.254 393.856 311.32C393.856 312.6 394.522 313.56 395.856 314.2C397.242 314.84 399.376 315.48 402.256 316.12C405.562 316.974 408.256 317.827 410.336 318.68C412.416 319.48 414.229 320.814 415.776 322.68C417.376 324.494 418.202 326.947 418.256 330.04C418.256 332.654 417.509 335 416.016 337.08C414.576 339.107 412.469 340.707 409.696 341.88C406.976 343.054 403.802 343.64 400.176 343.64ZM433.025 343.64C430.625 343.64 428.652 342.947 427.105 341.56C425.612 340.12 424.865 338.36 424.865 336.28C424.865 334.147 425.612 332.36 427.105 330.92C428.652 329.48 430.625 328.76 433.025 328.76C435.372 328.76 437.292 329.48 438.785 330.92C440.332 332.36 441.105 334.147 441.105 336.28C441.105 338.36 440.332 340.12 438.785 341.56C437.292 342.947 435.372 343.64 433.025 343.64Z" fill="#919191"/>
<path d="M69.71 426.08H48.75L45.39 436H31.07L51.39 379.84H67.23L87.55 436H73.07L69.71 426.08ZM66.19 415.52L59.23 394.96L52.35 415.52H66.19ZM107.414 376.8V436H93.7344V376.8H107.414ZM131.008 376.8V436H117.328V376.8H131.008ZM206.035 379.84L186.595 417.44V436H172.915V417.44L153.475 379.84H168.995L179.875 403.36L190.675 379.84H206.035ZM231.867 436.64C227.494 436.64 223.547 435.707 220.027 433.84C216.56 431.973 213.814 429.307 211.787 425.84C209.814 422.373 208.827 418.32 208.827 413.68C208.827 409.093 209.84 405.067 211.867 401.6C213.894 398.08 216.667 395.387 220.187 393.52C223.707 391.653 227.654 390.72 232.027 390.72C236.4 390.72 240.347 391.653 243.867 393.52C247.387 395.387 250.16 398.08 252.187 401.6C254.214 405.067 255.227 409.093 255.227 413.68C255.227 418.267 254.187 422.32 252.107 425.84C250.08 429.307 247.28 431.973 243.707 433.84C240.187 435.707 236.24 436.64 231.867 436.64ZM231.867 424.8C234.48 424.8 236.694 423.84 238.507 421.92C240.374 420 241.307 417.253 241.307 413.68C241.307 410.107 240.4 407.36 238.587 405.44C236.827 403.52 234.64 402.56 232.027 402.56C229.36 402.56 227.147 403.52 225.387 405.44C223.627 407.307 222.747 410.053 222.747 413.68C222.747 417.253 223.6 420 225.307 421.92C227.067 423.84 229.254 424.8 231.867 424.8ZM306.564 391.36V436H292.884V429.92C291.498 431.893 289.604 433.493 287.204 434.72C284.858 435.893 282.244 436.48 279.364 436.48C275.951 436.48 272.938 435.733 270.324 434.24C267.711 432.693 265.684 430.48 264.244 427.6C262.804 424.72 262.084 421.333 262.084 417.44V391.36H275.684V415.6C275.684 418.587 276.458 420.907 278.004 422.56C279.551 424.213 281.631 425.04 284.244 425.04C286.911 425.04 289.018 424.213 290.564 422.56C292.111 420.907 292.884 418.587 292.884 415.6V391.36H306.564ZM330.071 398.8C331.671 396.347 333.671 394.427 336.071 393.04C338.471 391.6 341.137 390.88 344.071 390.88V405.36H340.311C336.897 405.36 334.337 406.107 332.631 407.6C330.924 409.04 330.071 411.6 330.071 415.28V436H316.391V391.36H330.071V398.8ZM368.769 436.64C364.876 436.64 361.409 435.973 358.369 434.64C355.329 433.307 352.929 431.493 351.169 429.2C349.409 426.853 348.423 424.24 348.209 421.36H361.729C361.889 422.907 362.609 424.16 363.889 425.12C365.169 426.08 366.743 426.56 368.609 426.56C370.316 426.56 371.623 426.24 372.529 425.6C373.489 424.907 373.969 424.027 373.969 422.96C373.969 421.68 373.303 420.747 371.969 420.16C370.636 419.52 368.476 418.827 365.489 418.08C362.289 417.333 359.623 416.56 357.489 415.76C355.356 414.907 353.516 413.6 351.969 411.84C350.423 410.027 349.649 407.6 349.649 404.56C349.649 402 350.343 399.68 351.729 397.6C353.169 395.467 355.249 393.787 357.969 392.56C360.743 391.333 364.023 390.72 367.809 390.72C373.409 390.72 377.809 392.107 381.009 394.88C384.263 397.653 386.129 401.333 386.609 405.92H373.969C373.756 404.373 373.063 403.147 371.889 402.24C370.769 401.333 369.276 400.88 367.409 400.88C365.809 400.88 364.583 401.2 363.729 401.84C362.876 402.427 362.449 403.253 362.449 404.32C362.449 405.6 363.116 406.56 364.449 407.2C365.836 407.84 367.969 408.48 370.849 409.12C374.156 409.973 376.849 410.827 378.929 411.68C381.009 412.48 382.823 413.813 384.369 415.68C385.969 417.493 386.796 419.947 386.849 423.04C386.849 425.653 386.103 428 384.609 430.08C383.169 432.107 381.063 433.707 378.289 434.88C375.569 436.053 372.396 436.64 368.769 436.64ZM401.619 436.64C399.219 436.64 397.245 435.947 395.699 434.56C394.205 433.12 393.459 431.36 393.459 429.28C393.459 427.147 394.205 425.36 395.699 423.92C397.245 422.48 399.219 421.76 401.619 421.76C403.965 421.76 405.885 422.48 407.379 423.92C408.925 425.36 409.699 427.147 409.699 429.28C409.699 431.36 408.925 433.12 407.379 434.56C405.885 435.947 403.965 436.64 401.619 436.64Z" fill="white"/>
</svg>
